<svg width="23" height="23" viewBox="0 0 23 23" fill="none" xmlns="http://www.w3.org/2000/svg">
<g id="Group 6">
<g id="search">
<path id="Vector" fill-rule="evenodd" clip-rule="evenodd" d="M14.3094 16.1174C12.7639 17.2776 10.883 17.9037 8.95055 17.9011C4.01113 17.9011 0 13.89 0 8.95055C0 4.01113 4.01113 0 8.95055 0C13.89 0 17.9011 4.01113 17.9011 8.95055C17.9037 10.883 17.2776 12.7639 16.1174 14.3094L22.6411 20.8331C22.874 21.0742 23.0029 21.3972 23 21.7325C22.997 22.0677 22.8626 22.3884 22.6255 22.6255C22.3884 22.8626 22.0677 22.997 21.7325 23C21.3972 23.0029 21.0742 22.874 20.8331 22.6411L14.3094 16.1174ZM8.95055 2.5573C12.4796 2.5573 15.3438 5.42148 15.3438 8.95055C15.3438 12.4796 12.4796 15.3438 8.95055 15.3438C5.42148 15.3438 2.5573 12.4796 2.5573 8.95055C2.5573 5.42148 5.42148 2.5573 8.95055 2.5573Z" fill="#007CAF"/>
</g>
</g>
</svg>
